<?xml version="1.0" standalone="no"?>
<!DOCTYPE svg PUBLIC "-//W3C//DTD SVG 20010904//EN"
 "http://www.w3.org/TR/2001/REC-SVG-20010904/DTD/svg10.dtd">
<svg version="1.0" xmlns="http://www.w3.org/2000/svg"
 width="512.000000pt" height="512.000000pt" viewBox="0 0 512.000000 512.000000"
 preserveAspectRatio="xMidYMid meet">
<metadata>
Created by potrace 1.11, written by Peter Selinger 2001-2013
</metadata>
<g transform="translate(0.000000,512.000000) scale(0.100000,-0.100000)"
fill="#000000" stroke="none">
<path d="M2390 4669 c-41 -4 -99 -10 -129 -13 -86 -10 -256 -51 -376 -91 -103
-34 -312 -125 -345 -150 -8 -6 -48 -31 -88 -54 -67 -39 -192 -128 -267 -191
-71 -60 -242 -242 -304 -325 -147 -194 -234 -354 -317 -584 -19 -52 -34 -95
-34 -95 0 -1 -40 0 -89 1 -160 3 -284 -64 -372 -200 -61 -94 -70 -156 -66
-440 5 -265 8 -282 71 -381 83 -130 222 -201 379 -194 l76 3 21 -60 c193 -555
568 -982 1085 -1236 349 -171 717 -239 1115 -206 553 46 1108 342 1455 777
144 180 292 446 352 630 l28 88 75 1 c74 1 87 2 145 16 138 34 278 186 304
330 13 70 14 458 1 525 -29 154 -152 287 -309 336 -45 14 -182 21 -200 10 -10
-6 -20 16 -51 114 -26 81 -145 323 -201 410 -49 76 -140 200 -184 250 -62 71
-207 210 -282 271 -279 225 -695 406 -1018 444 -27 3 -69 8 -92 11 -67 9 -300
11 -383 3z m410 -173 c14 -3 47 -8 73 -11 75 -9 264 -60 373 -100 268 -101
538 -279 723 -479 20 -21 45 -48 56 -60 39 -40 143 -182 194 -264 146 -234
234 -485 278 -787 10 -66 10 -396 1 -460 -4 -27 -10 -70 -14 -95 -17 -134
-105 -404 -179 -550 -99 -196 -264 -418 -409 -550 -22 -19 -44 -40 -50 -45 -6
-6 -51 -43 -101 -81 -332 -260 -752 -402 -1185 -402 -85 -1 -175 3 -200 8 -25
4 -67 11 -95 14 -158 19 -393 91 -555 171 -201 99 -352 208 -521 375 -173 171
-294 340 -394 552 -71 151 -137 362 -160 513 -3 22 -9 60 -13 85 -12 78 -8
420 6 510 30 185 101 413 178 571 98 200 214 361 378 524 304 304 635 473
1071 550 112 20 158 23 325 21 107 -2 206 -6 220 -10z m-2316 -1497 c3 -2 1
-22 -4 -44 -25 -117 -37 -267 -34 -435 2 -132 22 -324 40 -381 6 -22 -12 -28
-75 -23 -95 8 -177 67 -221 162 -21 43 -23 63 -24 252 -2 214 4 273 30 328 24
50 89 109 145 130 46 17 131 24 143 11z m4324 -25 c60 -30 115 -95 133 -159
14 -48 18 -408 6 -480 -21 -125 -145 -227 -267 -220 -50 3 -49 3 -44 28 2 12
7 38 9 57 3 19 7 44 10 55 33 159 20 610 -21 724 -13 38 92 35 174 -5z"/>
<path d="M2527 4323 c-1 -1 -32 -3 -67 -4 -76 -2 -258 -30 -350 -54 -291 -76
-575 -240 -796 -463 -258 -259 -420 -567 -488 -927 -35 -184 -37 -409 -6 -598
102 -619 541 -1153 1125 -1369 81 -30 240 -73 305 -83 25 -4 53 -9 62 -11 105
-19 394 -19 493 0 11 2 40 7 65 11 67 10 225 54 312 86 461 170 857 567 1028
1033 29 77 68 208 76 256 3 14 9 51 15 83 29 164 26 394 -6 584 -135 781 -811
1396 -1595 1449 -117 8 -171 10 -173 7z m261 -183 c42 -7 85 -14 95 -16 9 -2
25 -6 35 -8 288 -65 551 -212 768 -430 173 -173 281 -338 365 -554 99 -257
124 -507 84 -837 -7 -54 -21 -107 -68 -254 -92 -290 -303 -578 -562 -767 -520
-380 -1205 -413 -1760 -86 -214 126 -425 337 -559 559 -74 123 -153 316 -171
418 -4 22 -11 47 -15 55 -4 8 -11 42 -14 75 -4 33 -9 69 -12 81 -9 35 -11 267
-3 329 16 129 21 163 40 240 110 450 431 846 852 1051 175 85 362 135 582 157
62 6 268 -2 343 -13z"/>
<path d="M2137 3914 c-1 -1 -29 -4 -62 -7 -86 -8 -102 -13 -181 -52 -130 -64
-229 -198 -270 -366 -4 -13 -9 -71 -11 -129 -8 -180 42 -314 162 -436 79 -80
134 -115 238 -151 65 -24 89 -26 257 -29 114 -1 192 1 205 8 53 27 65 91 24
133 -18 18 -36 21 -187 25 -143 4 -172 8 -200 25 -109 66 -144 281 -60 372 48
53 89 63 263 63 228 0 313 26 403 124 72 78 102 161 99 277 -2 68 -3 72 -39
105 -21 19 -46 34 -55 35 -27 2 -584 4 -586 3z m510 -207 c-8 -55 -53 -116
-108 -144 -40 -21 -60 -24 -165 -25 -65 0 -129 0 -141 1 -22 1 -22 4 -21 99 1
53 3 100 5 104 2 4 101 7 220 7 l215 -1 -5 -41z m-600 -83 c0 -114 0 -116 -26
-132 -14 -8 -36 -24 -47 -35 -22 -18 -22 -18 -79 52 -54 67 -57 72 -42 94 37
56 92 99 154 122 21 7 38 14 39 14 1 1 1 -51 1 -115z m-210 -308 c19 -23 21
-32 11 -50 -6 -11 -11 -22 -10 -23 1 -2 2 -33 2 -70 0 -59 -2 -65 -13 -48 -24
37 -49 124 -51 182 -5 87 1 88 61 9z"/>
<path d="M3165 3702 c-63 -12 -86 -92 -40 -137 21 -22 33 -25 98 -25 67 0 77
3 101 26 34 34 34 77 1 109 -13 14 -30 26 -37 26 -38 4 -106 4 -123 1z"/>
<path d="M3503 3520 c-53 -21 -67 -93 -26 -132 42 -39 102 -29 127 21 20 38 5
86 -35 106 -32 17 -35 17 -66 5z"/>
<path d="M1356 3414 c-45 -45 -31 -111 27 -133 52 -20 106 18 106 74 0 37 -17
61 -53 75 -40 15 -50 13 -80 -16z"/>
<path d="M3104 3292 c-24 -3 -61 -39 -64 -62 -5 -34 1 -52 25 -75 23 -24 28
-25 175 -25 156 0 193 -7 236 -46 36 -33 62 -87 74 -152 16 -93 3 -154 -44
-205 -48 -51 -84 -59 -281 -62 -157 -2 -187 -5 -237 -24 -150 -58 -240 -190
-242 -358 -1 -77 1 -83 28 -112 16 -17 43 -35 60 -40 41 -13 680 -6 726 7 19
6 46 14 60 18 48 13 159 95 201 147 67 84 110 184 125 292 50 343 -150 627
-486 692 -29 6 -324 10 -356 5z m671 -482 c6 -25 12 -72 13 -105 l2 -60 -40
45 c-38 43 -40 47 -33 90 4 25 7 70 5 100 l-2 55 22 -40 c11 -22 26 -60 33
-85z m-107 -284 c29 -35 52 -68 52 -73 0 -6 -18 -31 -40 -56 -39 -44 -140
-104 -157 -94 -5 3 -8 56 -7 117 0 86 4 114 15 121 8 4 28 17 44 28 17 11 33
20 36 20 3 1 29 -28 57 -63z m-318 -131 l0 -105 -220 0 c-214 0 -220 1 -220
20 0 32 28 92 58 124 51 54 92 66 245 66 l137 0 0 -105z"/>
<path d="M2636 3194 c-59 -58 -66 -69 -66 -104 0 -30 6 -43 26 -59 47 -37 79
-28 150 42 80 77 92 117 49 160 -48 47 -82 38 -159 -39z"/>
<path d="M1271 3153 c-12 -10 -24 -35 -28 -55 -5 -35 -2 -41 57 -102 69 -72
102 -86 148 -62 33 17 42 34 42 76 0 21 -16 44 -66 94 -73 72 -110 84 -153 49z"/>
<path d="M2973 2990 c-72 -29 -63 -137 12 -156 92 -23 136 116 49 152 -18 8
-35 14 -36 13 -2 0 -13 -4 -25 -9z"/>
<path d="M1194 2809 c-24 -12 -44 -49 -44 -80 0 -30 53 -79 80 -74 62 12 91
45 83 95 -8 51 -72 82 -119 59z"/>
<path d="M1535 2708 c-40 -35 -35 -104 9 -128 30 -16 121 -20 159 -7 39 13 62
60 48 99 -17 47 -38 57 -118 58 -60 0 -76 -4 -98 -22z"/>
<path d="M2105 2619 c-20 -5 -111 -90 -271 -251 -188 -190 -247 -256 -271
-303 -77 -151 -73 -321 12 -484 40 -75 120 -172 182 -219 192 -145 460 -160
664 -37 57 35 276 243 297 282 24 44 10 87 -35 112 -43 22 -74 5 -183 -103
-59 -59 -121 -112 -142 -121 -123 -51 -329 88 -328 222 1 64 33 113 153 235
119 121 154 171 176 251 20 69 10 180 -21 248 -31 67 -101 147 -145 165 -36
16 -45 16 -88 3z m58 -197 c27 -30 46 -97 41 -147 -6 -60 -34 -102 -138 -205
l-86 -85 -65 65 c-35 36 -67 71 -70 78 -3 9 53 72 142 163 82 82 151 149 154
149 3 0 13 -8 22 -18z m-284 -601 c-4 -14 -10 -39 -12 -56 -3 -24 -8 -30 -28
-29 -41 2 -153 15 -157 18 -2 2 -4 32 -6 67 -3 64 3 94 31 158 l15 33 83 -82
c76 -75 82 -85 74 -109z m-30 -252 c37 -3 47 -9 73 -43 17 -23 47 -56 67 -73
45 -41 26 -42 -54 -5 -62 30 -145 99 -145 121 0 7 4 10 8 7 5 -3 28 -6 51 -7z"/>
<path d="M1303 2462 c-32 -5 -140 -117 -148 -153 -12 -54 40 -106 94 -94 32 7
135 108 150 146 20 53 -35 111 -96 101z"/>
<path d="M2540 2463 c-33 -12 -60 -47 -60 -79 0 -49 30 -79 80 -79 50 0 80 30
80 79 0 48 -58 94 -100 79z"/>
<path d="M2421 2093 c-12 -10 -24 -35 -28 -56 -5 -36 -3 -40 64 -107 80 -80
114 -90 158 -45 44 43 33 85 -41 159 -71 71 -111 83 -153 49z"/>
<path d="M3035 1995 c-50 -49 -15 -135 55 -135 43 0 80 39 80 83 0 70 -85 103
-135 52z"/>
<path d="M3608 1932 c-34 -4 -68 -45 -68 -82 0 -16 11 -38 26 -54 44 -43 105
-31 129 27 24 58 -23 118 -87 109z"/>
<path d="M2260 1837 c-32 -16 -52 -59 -44 -91 20 -80 138 -81 158 -1 6 24 -13
78 -31 88 -23 13 -61 15 -83 4z"/>
<path d="M2965 1658 c-43 -24 -116 -105 -126 -139 -14 -44 6 -82 50 -97 38
-13 75 5 133 64 59 61 70 90 53 131 -21 49 -66 66 -110 41z"/>
<path d="M3308 1650 c-47 -36 -38 -119 14 -136 39 -13 132 -12 159 2 51 26 58
92 13 132 -35 30 -148 32 -186 2z"/>
<path d="M2703 1305 c-55 -23 -64 -97 -15 -135 41 -33 100 -20 121 27 16 35
14 57 -9 85 -24 31 -59 39 -97 23z"/>
<path d="M2419 1200 c-35 -34 -38 -77 -9 -108 63 -68 171 0 135 85 -23 53 -85
65 -126 23z"/>
</g>
</svg>
